<svg viewBox="0 0 1050 112" preserveAspectRatio="none"  xmlns="http://www.w3.org/2000/svg" version="1.1"><g transform-origin="center" transform="scale(1, 1) rotate(0)"><rect x="0" y="0" fill="#ffffffff"></rect><linearGradient id="linear-gradient-r4"><stop offset="0%" stop-color="#114446" stop-opacity="100%"></stop><stop offset="100%" stop-color="#114446" stop-opacity="100%"></stop></linearGradient><path d="M0 96.28383288435637 0,96.28383288435637 C 19.09090909090909,96.25744502382874 57.27272727272727,95.7955462901026 95.45454545454545,96.1518935817182 C 133.63636363636363,96.5082408733338 152.72727272727272,98.12286758639216 190.9090909090909,98.0655693424344 C 229.0909090909091,98.00827109847664 248.1818181818182,96.61407140682041 286.3636363636364,95.86540236192941 C 324.54545454545456,95.11673331703841 343.6363636363636,95.59808092683255 381.8181818181818,94.3222241179794 C 420,93.04636730912625 439.09090909090907,90.18127814968229 477.27272727272725,89.48611831766367 C 515.4545454545455,88.79095848564505 534.5454545454546,90.49452028912604 572.7272727272727,90.84642495788634 C 610.9090909090909,91.19832962664664 630,90.59517848387361 668.1818181818181,91.24564166146517 C 706.3636363636363,91.89610483905673 725.4545454545454,93.51006698740125 763.6363636363636,94.09874084584415 C 801.8181818181819,94.68741470428705 820.909090909091,94.59137436391713 859.0909090909091,94.18901095367968 C 897.2727272727273,93.78664754344226 916.3636363636364,91.98393328835071 954.5454545454545,92.086923794657 C 992.7272727272726,92.18991430096328 1030.909090909091,94.18055554710031 1050,94.70396348521113" fill="none" stroke-linecap="round" stroke="url(#linear-gradient-r4)" stroke-width="2" style="transition: all 0.4s cubic-bezier(0.16, 1, 0.3, 1) 0s;"></path><path d="M0 106.37212036548927 0,106.37212036548927 C 19.090909090909093,106.79553740030079 57.27272727272727,108.55259415807501 95.45454545454545,108.4892055395469 C 133.63636363636363,108.42581692101881 152.72727272727272,106.88342423492632 190.9090909090909,106.05517727284878 C 229.0909090909091,105.22693031077124 248.1818181818182,105.75944156956561 286.3636363636364,104.34797072915919 C 324.54545454545456,102.93649988875276 343.6363636363636,99.7668731911026 381.8181818181818,98.9978230708167 C 420,98.2287729505308 439.09090909090907,100.11341062598044 477.27272727272725,100.5027201277297 C 515.4545454545455,100.89202962947898 534.5454545454546,100.22476803360509 572.7272727272727,100.94437057956308 C 610.9090909090909,101.6639731255211 630,103.44948737296686 668.1818181818181,104.10073285751976 C 706.3636363636363,104.75197834207266 725.4545454545454,104.64572963219061 763.6363636363636,104.20059800232761 C 801.8181818181819,103.7554663724646 820.909090909091,101.76113708175532 859.0909090909091,101.87507470820472 C 897.2727272727273,101.9890123346541 916.3636363636364,104.43763140485586 954.5454545454545,104.77028613457456 C 992.7272727272726,105.10294086429327 1030.909090909091,103.78473591235355 1050,103.5383483567983" fill="none" stroke-linecap="round" stroke="url(#linear-gradient-r4)" stroke-width="2" style="transition: all 0.4s cubic-bezier(0.16, 1, 0.3, 1) 0s;"></path></g></svg>