<svg viewBox="0 0 896 504"  preserveAspectRatio="none" xmlns="http://www.w3.org/2000/svg" version="1.1"><g transform-origin="center" transform="scale(1, 1) rotate(0)"><rect x="0" y="0"  height="896" width="504" fill="#ffffffff"></rect><linearGradient id="linear-gradient-r4"><stop offset="0%" stop-color="#114446" stop-opacity="100%"></stop><stop offset="100%" stop-color="#114446" stop-opacity="100%"></stop></linearGradient><path d="M0 426.18816403694456 0,426.18816403694456 C 44.800000000000004,426.0336065681398 134.39999999999998,423.32819969917244 224,425.415376692921 C 313.6,427.5025536866695 358.4,436.9596530060113 448,436.62404900568725 C 537.6,436.28844500536326 582.4,428.12241823994816 672,423.7373566913009 C 761.6,419.3522951426536 851.2,416.50646434822085 896,414.6987412624508" fill="none" stroke-linecap="round" stroke="url(#linear-gradient-r4)" stroke-width="2" style="transition: all 0.4s cubic-bezier(0.16, 1, 0.3, 1) 0s;"></path><path d="M0 453.2081931144968 0,453.2081931144968 C 44.80000000000001,455.5963823546559 134.39999999999998,465.50666866406954 224,465.14913931529225 C 313.6,464.791609966515 358.4,456.09208842112946 448,451.4205463706106 C 537.6,446.7490043200918 582.4,449.7525151710011 672,441.79142906269806 C 761.6,433.830342954395 851.2,417.65037847581584 896,411.61511582909526" fill="none" stroke-linecap="round" stroke="url(#linear-gradient-r4)" stroke-width="2" style="transition: all 0.4s cubic-bezier(0.16, 1, 0.3, 1) 0s;"></path><path d="M0 493.6742296248973 0,493.6742296248973 C 44.8,490.76013090990193 134.39999999999998,484.06175860231076 224,479.10373604992037 C 313.6,474.14571349753 358.4,477.33341348484015 448,468.8841168629453 C 537.6,460.43482024105043 582.4,441.4609134606511 672,436.8572529404462 C 761.6,432.25359242024126 851.2,444.06410199762587 896,445.8658142619208" fill="none" stroke-linecap="round" stroke="url(#linear-gradient-r4)" stroke-width="2" style="transition: all 0.4s cubic-bezier(0.16, 1, 0.3, 1) 0s;"></path><path d="M0 506.78692572923006 0,506.78692572923006 C 44.80000000000001,504.62490151602253 134.4,504.91431179867914 224,495.9768046631925 C 313.6,487.0392975277059 358.4,466.9690556097642 448,462.09939005179706 C 537.6,457.2297244938299 582.4,469.1633487600513 672,471.6284768733569 C 761.6,474.09360498666246 851.2,473.8657198693313 896,474.4250306183249" fill="none" stroke-linecap="round" stroke="url(#linear-gradient-r4)" stroke-width="2" style="transition: all 0.4s cubic-bezier(0.16, 1, 0.3, 1) 0s;"></path><path d="M0 523.0694924634397 0,523.0694924634397 C 44.800000000000004,515.9238994033814 134.4,492.47719775887725 224,487.3415271631479 C 313.6,482.2058565674185 358.4,494.79135397272705 448,497.3911394847929 C 537.6,499.99092499685884 582.4,495.53499206453563 672,500.34045472347736 C 761.6,505.1459173824191 851.2,517.2028531682968 896,521.4184527795016" fill="none" stroke-linecap="round" stroke="url(#linear-gradient-r4)" stroke-width="2" style="transition: all 0.4s cubic-bezier(0.16, 1, 0.3, 1) 0s;"></path><path d="M0 512.5836642744988 0,512.5836642744988 C 44.800000000000004,514.6976918388449 134.39999999999998,520.4193591854028 224,523.153802096229 C 313.6,525.8882450070553 358.4,521.201514443569 448,526.2558788286299 C 537.6,531.3102432136908 582.4,543.8513878663882 672,548.4256240215338 C 761.6,552.9998601766795 851.2,548.9867724877931 896,549.1270596043579" fill="none" stroke-linecap="round" stroke="url(#linear-gradient-r4)" stroke-width="2" style="transition: all 0.4s cubic-bezier(0.16, 1, 0.3, 1) 0s;"></path><path d="M0 548.9164647076651 0,548.9164647076651 C 44.80000000000001,549.5674323528885 134.39999999999998,546.8680368226021 224,552.1713029337823 C 313.6,557.4745690449624 358.4,570.6333012544244 448,575.432795263566 C 537.6,580.2322892727077 582.4,579.4492664976507 672,576.1687729794904 C 761.6,572.8882794613302 851.2,562.4580167341098 896,559.0303276727647" fill="none" stroke-linecap="round" stroke="url(#linear-gradient-r4)" stroke-width="2" style="transition: all 0.4s cubic-bezier(0.16, 1, 0.3, 1) 0s;"></path><path d="M0 578.0867270389348 0,578.0867270389348 C 44.8,582.9573749322675 134.4,597.4152146424607 224,602.4399665055982 C 313.6,607.4647183687359 358.4,606.6449454634353 448,603.210486354623 C 537.6,599.7760272458106 582.4,584.3885734255648 672,585.2676709615364 C 761.6,586.146768497508 851.2,603.1383134198919 896,607.6059740344807" fill="none" stroke-linecap="round" stroke="url(#linear-gradient-r4)" stroke-width="2" style="transition: all 0.4s cubic-bezier(0.16, 1, 0.3, 1) 0s;"></path><path d="M0 629.4471377476304 0,629.4471377476304 C 44.8,629.6081501440555 134.39999999999998,633.8406244292199 224,630.2521997297555 C 313.6,626.663775030291 358.4,610.5865070818215 448,611.5050142503082 C 537.6,612.423521418795 582.4,632.1630424090147 672,634.844735572189 C 761.6,637.5264287353634 851.2,626.899731167382 896,624.9134800661802" fill="none" stroke-linecap="round" stroke="url(#linear-gradient-r4)" stroke-width="2" style="transition: all 0.4s cubic-bezier(0.16, 1, 0.3, 1) 0s;"></path><path d="M0 657.293913104888 0,657.293913104888 C 44.800000000000004,653.3836019917264 134.4,636.7844407380783 224,637.7423575390801 C 313.6,638.7002743400819 358.4,659.2867427412092 448,662.0834971098974 C 537.6,664.8802514785856 582.4,657.4748380829795 672,651.7261293825209 C 761.6,645.9774206820622 851.2,637.0171887625872 896,633.3399536076039" fill="none" stroke-linecap="round" stroke="url(#linear-gradient-r4)" stroke-width="2" style="transition: all 0.4s cubic-bezier(0.16, 1, 0.3, 1) 0s;"></path><path d="M0 663.9797008278518 0,663.9797008278518 C 44.800000000000004,669.0482123918026 134.39999999999998,686.4104430734038 224,689.3222586476057 C 313.6,692.2340742218076 358.4,684.5239948883683 448,678.5387786988616 C 537.6,672.553562509355 582.4,656.0538076475411 672,659.3961777000725 C 761.6,662.7385477526038 851.2,688.0797387092292 896,695.2506289615184" fill="none" stroke-linecap="round" stroke="url(#linear-gradient-r4)" stroke-width="2" style="transition: all 0.4s cubic-bezier(0.16, 1, 0.3, 1) 0s;"></path><path d="M0 716.5610201853141 0,716.5610201853141 C 44.8,714.3191017512917 134.4,711.5731516937568 224,705.3514280152023 C 313.6,699.1297043366477 358.4,681.9779570540562 448,685.4524017925411 C 537.6,688.926846531026 582.4,714.4027637387618 672,722.7236517076268 C 761.6,731.0445396764918 851.2,726.1902036510185 896,727.0568416368664" fill="none" stroke-linecap="round" stroke="url(#linear-gradient-r4)" stroke-width="2" style="transition: all 0.4s cubic-bezier(0.16, 1, 0.3, 1) 0s;"></path><path d="M0 732.1640773315429 0,732.1640773315429 C 44.8,728.0329870422363 134.39999999999998,707.9021064605712 224,711.5086258850097 C 313.6,715.1151453094482 358.4,741.5594830902099 448,750.1966744537353 C 537.6,758.8338658172607 582.4,759.280134375 672,754.6945827026367 C 761.6,750.1090310302734 851.2,732.7540494140625 896,727.2689160919189" fill="none" stroke-linecap="round" stroke="url(#linear-gradient-r4)" stroke-width="2" style="transition: all 0.4s cubic-bezier(0.16, 1, 0.3, 1) 0s;"></path><path d="M0 737.5648499774784 0,737.5648499774784 C 44.800000000000004,745.5858194219514 134.39999999999998,768.7162024416581 224,777.6696971998438 C 313.6,786.6231919580295 358.4,787.0858033584594 448,782.332323768407 C 537.6,777.5788441783546 582.4,766.5099859798036 672,753.9022992495819 C 761.6,741.2946125193603 851.2,726.2155719437554 896,719.2938901172988" fill="none" stroke-linecap="round" stroke="url(#linear-gradient-r4)" stroke-width="2" style="transition: all 0.4s cubic-bezier(0.16, 1, 0.3, 1) 0s;"></path><path d="M0 805.1427199459523 0,805.1427199459523 C 44.800000000000004,806.1081889235974 134.39999999999998,814.891472341919 224,809.9700648341775 C 313.6,805.048657326436 358.4,793.5887655127689 448,780.535682407245 C 537.6,767.482599301721 582.4,737.2254987259269 672,744.704649306558 C 761.6,752.1837998871893 851.2,803.2860781096324 896,817.931435310401" fill="none" stroke-linecap="round" stroke="url(#linear-gradient-r4)" stroke-width="2" style="transition: all 0.4s cubic-bezier(0.16, 1, 0.3, 1) 0s;"></path><path d="M0 837.6078058999478 0,837.6078058999478 C 44.800000000000004,831.5200578329399 134.39999999999998,820.6675450457341 224,807.169065564908 C 313.6,793.670586084082 358.4,762.3810548698962 448,770.1154084958173 C 537.6,777.8497621217384 582.4,837.6853751059972 672,845.8408336945139 C 761.6,853.9962922830306 851.2,817.8823278896235 896,810.8927014384009" fill="none" stroke-linecap="round" stroke="url(#linear-gradient-r4)" stroke-width="2" style="transition: all 0.4s cubic-bezier(0.16, 1, 0.3, 1) 0s;"></path><path d="M0 833.8024487225711 0,833.8024487225711 C 44.800000000000004,826.1471925150721 134.39999999999998,787.5366110138654 224,795.5261676850765 C 313.6,803.5157243562877 358.4,865.32567564843 448,873.7502320786267 C 537.6,882.1747885088234 582.4,840.595986545223 672,837.6489498360604 C 761.6,834.7019131268978 851.2,854.7418287934631 896,859.0150485328138" fill="none" stroke-linecap="round" stroke="url(#linear-gradient-r4)" stroke-width="2" style="transition: all 0.4s cubic-bezier(0.16, 1, 0.3, 1) 0s;"></path><path d="M0 820.9369268743358 0,820.9369268743358 C 44.8,837.0814675920166 134.39999999999998,892.9659761908628 224,901.6596304627396 C 313.6,910.3532847346165 358.4,867.4463694203899 448,864.40519823372 C 537.6,861.3640270470501 582.4,894.3524108088724 672,886.45377452939 C 761.6,878.5551382499076 851.2,837.2203683749243 896,824.9120168363079" fill="none" stroke-linecap="round" stroke="url(#linear-gradient-r4)" stroke-width="2" style="transition: all 0.4s cubic-bezier(0.16, 1, 0.3, 1) 0s;"></path><path d="M0 929.5690288468525 0,929.5690288468525 C 44.800000000000004,921.8875124037578 134.39999999999998,894.2967522955566 224,891.1614466313794 C 313.6,888.0261409672021 358.4,922.0356261661425 448,913.8925005259663 C 537.6,905.7493748857901 582.4,857.3966095654696 672,850.4458184304982 C 761.6,843.4950272955268 851.2,873.3999995669872 896,879.1385448511094" fill="none" stroke-linecap="round" stroke="url(#linear-gradient-r4)" stroke-width="2" style="transition: all 0.4s cubic-bezier(0.16, 1, 0.3, 1) 0s;"></path></g></svg>